<svg width="87" height="72" viewBox="0 0 87 72" fill="none" xmlns="http://www.w3.org/2000/svg">
<path d="M8.75804 32.7188H32.9279C38.1526 32.7188 40.7404 30.082 40.7404 24.7109V8.20702C40.7404 2.83592 38.1526 0.199219 32.9279 0.199219H8.75804C3.53344 0.199219 0.945557 2.83592 0.945557 8.20702V24.7109C0.945557 30.082 3.53344 32.7188 8.75804 32.7188ZM54.7541 32.7188H78.924C84.1487 32.7188 86.7365 30.082 86.7365 24.7109V8.20702C86.7365 2.83592 84.1487 0.199219 78.924 0.199219H54.7541C49.5295 0.199219 46.9416 2.83592 46.9416 8.20702V24.7109C46.9416 30.082 49.5295 32.7188 54.7541 32.7188ZM54.7541 71.3906H78.924C84.1487 71.3906 86.7365 68.7539 86.7365 63.3828V46.8789C86.7365 41.5078 84.1487 38.9199 78.924 38.9199H54.7541C49.5295 38.9199 46.9416 41.5078 46.9416 46.8789V63.3828C46.9416 68.7539 49.5295 71.3906 54.7541 71.3906ZM8.75804 71.3906H32.9279C38.1526 71.3906 40.7404 68.7539 40.7404 63.3828V46.8789C40.7404 41.5078 38.1526 38.9199 32.9279 38.9199H8.75804C3.53344 38.9199 0.945557 41.5078 0.945557 46.8789V63.3828C0.945557 68.7539 3.53344 71.3906 8.75804 71.3906Z" fill="black"/>
</svg>
