<svg width="84" height="82" viewBox="0 0 84 82" fill="none" xmlns="http://www.w3.org/2000/svg">
<path d="M5.75729 27.5137H77.8765C80.2691 27.5137 81.6851 25.8047 81.6851 23.998C81.6851 22.6797 80.9527 21.5566 79.3413 20.6289L46.7241 1.83006C45.1128 0.902263 43.4527 0.414062 41.7925 0.414062C40.1812 0.414062 38.4722 0.902263 36.9097 1.83006L4.29249 20.6289C2.68119 21.5566 1.94878 22.6797 1.94878 23.998C1.94878 25.8047 3.36479 27.5137 5.75729 27.5137ZM-0.00439453 77.6113C-0.00439453 79.5156 1.60699 81.1269 3.51119 81.1269H80.1714C82.0757 81.1269 83.687 79.5156 83.687 77.6113C83.687 75.6582 82.0757 74.0957 80.1714 74.0957H3.51119C1.60699 74.0957 -0.00439453 75.6582 -0.00439453 77.6113ZM11.4702 65.5996H18.062V34.8379H11.4702V65.5996ZM29.6831 65.5996H36.2749V34.8379H29.6831V65.5996ZM47.9448 65.5996H54.4878V34.8379H47.9448V65.5996ZM66.1577 65.5996H72.7007V34.8379H66.1577V65.5996ZM61.6655 34.3008C61.6655 36.1074 62.6909 37.1328 64.4976 37.1328H74.312C76.0698 37.1328 77.1441 36.1074 77.1441 34.3008V33.3242C77.1441 31.5664 76.0698 30.541 74.312 30.541H64.4976C62.6909 30.541 61.6655 31.5664 61.6655 33.3242V34.3008ZM43.4527 34.3008C43.4527 36.1074 44.5269 37.1328 46.2847 37.1328H56.0991C57.9058 37.1328 58.9312 36.1074 58.9312 34.3008V33.3242C58.9312 31.5664 57.9058 30.541 56.0991 30.541H46.2847C44.5269 30.541 43.4527 31.5664 43.4527 33.3242V34.3008ZM61.6655 68.2363C61.6655 69.9941 62.6909 71.0683 64.4976 71.0683H74.312C76.0698 71.0683 77.1441 69.9941 77.1441 68.2363V67.2109C77.1441 65.502 76.0698 64.4766 74.312 64.4766H64.4976C62.6909 64.4766 61.6655 65.502 61.6655 67.2109V68.2363ZM43.4527 68.2363C43.4527 69.9941 44.5269 71.0683 46.2847 71.0683H56.0991C57.9058 71.0683 58.9312 69.9941 58.9312 68.2363V67.2109C58.9312 65.502 57.9058 64.4766 56.0991 64.4766H46.2847C44.5269 64.4766 43.4527 65.502 43.4527 67.2109V68.2363ZM7.02689 34.3008C7.02689 36.1074 8.05228 37.1328 9.81008 37.1328H19.6245C21.4312 37.1328 22.4566 36.1074 22.4566 34.3008V33.3242C22.4566 31.5664 21.4312 30.541 19.6245 30.541H9.81008C8.05228 30.541 7.02689 31.5664 7.02689 33.3242V34.3008ZM25.2398 34.3008C25.2398 36.1074 26.2652 37.1328 28.023 37.1328H37.8374C39.6441 37.1328 40.6695 36.1074 40.6695 34.3008V33.3242C40.6695 31.5664 39.6441 30.541 37.8374 30.541H28.023C26.2652 30.541 25.2398 31.5664 25.2398 33.3242V34.3008ZM7.02689 68.2363C7.02689 69.9941 8.05228 71.0683 9.81008 71.0683H19.6245C21.4312 71.0683 22.4566 69.9941 22.4566 68.2363V67.2109C22.4566 65.502 21.4312 64.4766 19.6245 64.4766H9.81008C8.05228 64.4766 7.02689 65.502 7.02689 67.2109V68.2363ZM25.2398 68.2363C25.2398 69.9941 26.2652 71.0683 28.023 71.0683H37.8374C39.6441 71.0683 40.6695 69.9941 40.6695 68.2363V67.2109C40.6695 65.502 39.6441 64.4766 37.8374 64.4766H28.023C26.2652 64.4766 25.2398 65.502 25.2398 67.2109V68.2363Z" fill="black"/>
</svg>
