<svg width="80" height="70" viewBox="0 0 80 70" fill="none" xmlns="http://www.w3.org/2000/svg">
<path d="M0.535645 52.4707C0.535645 57.5488 3.90482 60.9668 8.78762 60.9668H70.897C75.7798 60.9668 79.1489 57.5488 79.1489 52.4707V29.1309C79.1489 24.0527 75.7798 20.6836 70.897 20.6836H69.5298C64.647 20.6836 61.2778 24.0527 61.2778 29.1309V42.6074H18.4067V29.1309C18.4067 24.0527 15.0376 20.6836 10.1548 20.6836H8.78762C3.90482 20.6836 0.535645 24.0527 0.535645 29.1309V52.4707ZM23.1919 37.8223H56.4927V29.1309C56.4927 22.0508 61.1802 16.7285 67.8696 16.7285H68.1626V8.5742C68.1626 3.4473 64.7934 0.0292969 59.813 0.0292969H19.8716C14.8911 0.0292969 11.522 3.4473 11.522 8.5742V16.7285H11.8149C18.5044 16.7285 23.1919 22.0508 23.1919 29.1309V37.8223ZM14.7446 69.4141H17.3325C19.4809 69.4141 20.9946 67.9981 20.9946 65.8008V57.1582H11.1802V65.8008C11.1802 67.9981 12.5962 69.4141 14.7446 69.4141ZM62.352 69.4141H64.9399C67.0884 69.4141 68.5044 67.9981 68.5044 65.8008V57.1582H58.7388V65.8008C58.7388 67.9981 60.2036 69.4141 62.352 69.4141Z" fill="black"/>
</svg>
