<svg width="92" height="71" viewBox="0 0 92 71" fill="none" xmlns="http://www.w3.org/2000/svg">
<path d="M45.8193 49.5645C53.0459 49.5645 54.8525 45.1699 61.1025 43.7051L33.8076 15.2871C32.0498 13.4805 29.4619 13.2363 27.3623 14.75L12.1279 25.5898C9.49122 27.4453 9.73532 30.1797 11.249 31.8398C12.5185 33.2559 14.8135 33.8418 16.9619 32.2793L29.3642 23.5391L36.3467 30.7168C37.1279 31.5469 37.3721 32.7676 36.1514 33.5977L20.8682 43.6562C22.5283 43.4121 24.3349 43.3145 26.5322 43.3145C35.8584 43.4121 37.3232 49.5645 45.8193 49.5645ZM2.50882 60.1602H6.56152C17.0107 60.1602 19.2568 53.8613 26.1904 53.8613C33.1728 53.8613 35.4189 60.1602 45.8193 60.1602C56.2685 60.1602 58.5146 53.8613 65.4482 53.8613C72.4306 53.8613 74.6767 60.1602 85.0771 60.1602H89.1299C90.4484 60.1602 91.5224 59.1348 91.5224 57.8164C91.5224 56.498 90.4484 55.4238 89.1299 55.4238H85.0771C77.8994 55.4238 75.458 49.125 65.4482 49.125C55.4873 49.125 53.0459 55.4238 45.8193 55.4238C38.6416 55.4238 36.2002 49.125 26.1904 49.125C16.2295 49.125 13.7881 55.4238 6.56152 55.4238H2.50882C1.19042 55.4238 0.165039 56.498 0.165039 57.8164C0.165039 59.1348 1.19042 60.1602 2.50882 60.1602ZM2.50882 70.8535H6.56152C17.0107 70.8535 19.2568 64.5547 26.1904 64.5547C33.1728 64.5547 35.4189 70.8535 45.8193 70.8535C56.2685 70.8535 58.5146 64.5547 65.4482 64.5547C72.4306 64.5547 74.6767 70.8535 85.0771 70.8535H89.1299C90.4484 70.8535 91.5224 69.8281 91.5224 68.5097C91.5224 67.1914 90.4484 66.1172 89.1299 66.1172H85.0771C77.8994 66.1172 75.458 59.8184 65.4482 59.8184C55.4873 59.8184 53.0459 66.1172 45.8193 66.1172C38.6416 66.1172 36.2002 59.8184 26.1904 59.8184C16.2295 59.8184 13.7881 66.1172 6.56152 66.1172H2.50882C1.19042 66.1172 0.165039 67.1914 0.165039 68.5097C0.165039 69.8281 1.19042 70.8535 2.50882 70.8535ZM61.249 33.4512C65.9853 33.4512 69.7451 29.6914 69.7451 24.9551C69.7451 20.2676 65.9853 16.459 61.249 16.459C56.5615 16.459 52.7529 20.2676 52.7529 24.9551C52.7529 29.6914 56.5615 33.4512 61.249 33.4512ZM33.0264 2.98237C33.0264 4.30077 34.0517 5.37497 35.3701 5.37497C38.8369 5.37497 40.9365 6.00977 43.1338 8.40227C43.9639 9.37887 44.8916 9.76947 45.8193 9.76947C46.7959 9.76947 47.6748 9.37887 48.5537 8.40227C50.751 6.00977 52.8017 5.37497 56.2685 5.37497C57.5869 5.37497 58.6611 4.30077 58.6611 2.98237C58.6611 1.66407 57.5869 0.638672 56.2685 0.638672C51.9717 0.638672 48.9932 1.66407 45.8193 4.49607C42.6455 1.66407 39.7158 0.638672 35.4189 0.638672C34.0517 0.638672 33.0264 1.66407 33.0264 2.98237Z" fill="black"/>
</svg>
