<svg width="54" height="90" viewBox="0 0 54 90" fill="none" xmlns="http://www.w3.org/2000/svg">
<path d="M13.4639 89.4941C16.7842 89.4941 18.7373 87.6386 18.6885 84.4648L17.956 41.3496C17.956 39.9824 18.5908 38.957 19.7627 38.4199C24.8408 36.2227 27.1846 33.9277 26.8916 27.1406L25.8174 3.41017C25.7197 1.70117 24.7432 0.675766 23.1318 0.675766C21.5693 0.675766 20.6416 1.74997 20.6416 3.45897L20.9346 26.5547C20.9346 27.873 20.0557 28.752 18.7373 28.752C17.4189 28.752 16.4912 27.9219 16.4912 26.6523L16.1006 2.77537C16.0517 1.11517 15.0752 0.138672 13.4639 0.138672C11.9014 0.138672 10.9248 1.11517 10.876 2.77537L10.4853 26.6523C10.4853 27.9219 9.55759 28.752 8.19039 28.752C6.92089 28.752 6.04199 27.873 6.04199 26.5547L6.28609 3.45897C6.28609 1.74997 5.40719 0.675766 3.84469 0.675766C2.23339 0.675766 1.20799 1.70117 1.11029 3.41017L0.0361065 27.1406C-0.256854 33.9277 2.08689 36.2227 7.21389 38.4199C8.38569 38.957 9.02049 39.9824 9.02049 41.3496L8.28808 84.4648C8.23928 87.6386 10.1924 89.4941 13.4639 89.4941ZM43.9326 55.3633L43.2002 84.416C43.1025 87.6386 45.1045 89.4941 48.376 89.4941C51.6963 89.4941 53.6494 87.834 53.6494 84.7578V3.11717C53.6494 1.06637 52.2334 0.138672 50.7685 0.138672C49.3037 0.138672 48.3271 0.919873 46.96 2.82417C40.8076 11.5156 36.6572 28.0195 36.6572 43.1074V44.7676C36.6572 47.3066 37.6826 49.3086 39.5869 50.5781L42.0283 52.1895C43.3467 53.1172 43.9814 54.1426 43.9326 55.3633Z" fill="black"/>
</svg>
