<svg width="33" height="62" viewBox="0 0 33 62" fill="none" xmlns="http://www.w3.org/2000/svg">
<path d="M0.925781 57.4277C0.925781 59.5762 2.48826 61.041 4.78316 61.041H28.9043C31.1993 61.041 32.7618 59.5762 32.7618 57.4277C32.7618 55.3281 31.1993 53.9121 28.9043 53.9121H21.7754V25.8848C21.7754 23.541 20.2129 21.9297 17.918 21.9297H5.66216C3.36716 21.9297 1.80466 23.3457 1.80466 25.4453C1.80466 27.6426 3.36716 29.0586 5.66216 29.0586H13.6211V53.9121H4.78316C2.48826 53.9121 0.925781 55.3281 0.925781 57.4277ZM10.3497 7.08592C10.3497 10.4551 12.9864 13.1406 16.3555 13.1406C19.7735 13.1406 22.4102 10.4551 22.4102 7.08592C22.3614 3.66802 19.7735 0.982422 16.3555 0.982422C12.9864 0.982422 10.3497 3.66802 10.3497 7.08592Z" fill="black"/>
</svg>
