<svg width="132" height="87" viewBox="0 0 132 87" fill="none" xmlns="http://www.w3.org/2000/svg">
<path d="M121.904 20.6738L84.3062 10.6152C77.3237 8.7598 72.3433 10.7129 70.2925 16.8164L70.146 17.3047L74.7358 34.3457C79.0327 50.459 75.4194 64.082 65.312 72.8711C69.1694 78.8281 75.8589 83.2715 84.4526 85.5664C103.495 90.6445 117.948 81.8066 123.32 61.8848L130.497 35.2734C132.548 27.7051 129.667 22.7734 121.904 20.6738ZM89.7261 64.8633C85.8687 63.7891 82.4507 63.7891 77.3726 64.9121C75.7124 65.3027 74.7358 63.8867 75.6148 62.6172C78.7886 57.6855 85.2827 55.5859 91.7283 57.3926C98.3203 59.0527 102.861 64.082 103.154 69.8926C103.251 71.5527 101.689 72.1875 100.468 71.1133C96.6113 67.5977 93.6323 65.8887 89.7261 64.8633ZM83.3296 44.502C80.6929 43.8184 79.0815 41.084 79.814 38.3008C80.5464 35.6641 83.2319 34.0527 85.9663 34.7852C88.6519 35.5176 90.2632 38.3008 89.5308 40.9863C88.7983 43.6719 86.064 45.2344 83.3296 44.502ZM105.79 50.5078C103.154 49.7754 101.591 46.9922 102.323 44.2578C103.007 41.6211 105.693 40.0586 108.427 40.791C111.161 41.4746 112.724 44.209 111.991 46.9434C111.259 49.6289 108.525 51.1914 105.79 50.5078Z" fill="black"/>
<path d="M47.2944 75.8008C66.3862 70.5762 74.5894 55.8301 69.2183 35.8594L62.0894 9.15041C60.0386 1.58201 55.0581 -1.15229 47.3433 0.898413L9.74563 10.8594C1.98193 12.9102 -0.850061 17.793 1.20073 25.459L8.32963 52.1191C13.603 72.041 28.1538 80.8789 47.2944 75.8008ZM43.5835 61.5918C35.6245 63.6426 27.9097 60.957 23.9058 54.6582C23.0269 53.4375 23.8081 52.168 25.3218 52.3145C29.7651 52.6562 35.9175 51.9238 40.6538 50.6543C45.2437 49.4336 50.8101 47.0898 54.6187 44.502C55.8882 43.5742 57.2065 44.2578 57.1089 45.8203C56.8159 53.3398 51.5425 59.3945 43.5835 61.5918ZM47.6362 30.1953C44.6577 31.0742 44.3648 32.9785 43.0464 33.125C42.4605 33.2227 41.8257 32.5391 41.5327 31.5137C40.605 28.2422 42.7046 24.7266 45.9761 23.8965C49.3941 23.0664 52.7632 25.0195 53.5933 28.2422C53.9351 29.3652 53.6909 30.1953 53.0562 30.4395C51.5913 31.0254 50.273 29.4629 47.6362 30.1953ZM24.2964 36.543C21.3179 37.373 21.0249 39.2773 19.7065 39.4727C19.1206 39.5703 18.4858 38.8867 18.1929 37.8613C17.2651 34.541 19.3648 31.0254 22.6362 30.2441C26.0054 29.4629 29.4233 31.3672 30.2534 34.541C30.5952 35.6641 30.3511 36.543 29.7163 36.7871C28.2515 37.3242 26.9331 35.8105 24.2964 36.543Z" fill="black"/>
</svg>
