<svg width="60" height="96" viewBox="0 0 60 96" fill="none" xmlns="http://www.w3.org/2000/svg">
<path d="M29.8179 57.4141C47.3472 57.4141 59.3589 51.9941 59.3589 43.5469C59.3589 35.0996 47.3472 29.7285 29.8179 29.7285C12.3374 29.7285 0.325684 35.0996 0.325684 43.5469C0.325684 51.9941 12.3863 57.4141 29.8179 57.4141ZM29.8179 50.334C16.6831 50.334 7.40576 47.3066 7.40576 43.5469C7.40576 39.7871 16.6831 36.7598 29.8179 36.7598C43.0015 36.7598 52.23 39.7871 52.23 43.5469C52.23 47.3066 43.0015 50.334 29.8179 50.334ZM28.3042 72.3066H31.3804C47.9331 72.3066 59.6031 60.0996 59.3589 43.5469H52.23C52.523 56.3398 44.0757 65.2754 31.3804 65.2754H28.3042C15.5601 65.2754 7.16166 56.3887 7.40576 43.5469H0.325684C0.0327245 60.1484 11.7515 72.3066 28.3042 72.3066ZM29.9156 95.0605C36.9956 95.0605 45.6871 93.3516 49.5445 89.3965C50.521 88.3711 50.5699 87.0039 50.1792 85.6367L43.5386 64.0059L37.2886 67.6191L43.8804 89.0547L44.2222 84.6601C41.7808 86.8086 35.8238 87.9805 29.9156 87.9805C24.0562 87.9805 18.0992 86.8086 15.6578 84.6601L15.9996 89.0547L22.5913 67.6191L16.3413 64.0059L9.65187 85.6367C9.26127 87.0039 9.35886 88.3711 10.2867 89.3965C14.2417 93.3516 22.8843 95.0605 29.9156 95.0605ZM4.18306 7.41409H55.5015C57.4058 7.41409 59.0171 5.80268 59.0171 3.89838C59.0171 1.94528 57.4058 0.333984 55.5015 0.333984H4.18306C2.22996 0.333984 0.667464 1.94528 0.667464 3.89838C0.667464 5.80268 2.22996 7.41409 4.18306 7.41409ZM6.81986 36.7598L13.8999 36.2227L11.8492 5.65618L4.76906 6.09569L6.81986 36.7598ZM45.7847 36.2227L52.816 36.7598L54.9156 6.09569L47.8355 5.65618L45.7847 36.2227Z" fill="black"/>
</svg>
