<svg width="101" height="102" viewBox="0 0 101 102" fill="none" xmlns="http://www.w3.org/2000/svg">
<path d="M0 61.0351C0 70.459 6.44528 77.0508 15.5274 77.0508C18.4082 77.0508 21.5332 76.3183 24.8047 74.707C26.9043 76.5625 32.3731 79.7851 39.4532 80.2246C38.086 74.0234 33.6426 65.1367 31.2012 60.498C37.5977 60.1074 41.211 56.7871 42.9199 52.2949C44.9707 53.7598 47.4121 54.541 50.4883 54.541C53.5156 54.541 55.9571 53.7598 58.0567 52.2949C59.7168 56.7871 63.3789 60.1074 69.7266 60.498C67.2852 65.1367 62.8418 74.0234 61.4746 80.2246C68.5547 79.7851 74.0235 76.5625 76.1719 74.707C79.4434 76.3183 82.5196 77.0508 85.4004 77.0508C94.5314 77.0508 100.927 70.459 100.927 61.0351C100.927 56.2988 98.9744 51.2695 94.5804 46.7773C98.0954 43.1152 99.5114 38.6719 99.5114 34.4726C99.5114 25.1953 92.4314 16.4551 83.3985 15.332C82.9102 6.3476 72.7539 0 63.2324 0C58.3496 0 53.8574 1.416 50.4883 4.834C47.0703 1.416 42.5782 0 37.6953 0C28.1739 0 18.0176 6.3476 17.5293 15.332C8.49608 16.4551 1.41598 25.1953 1.41598 34.4726C1.41598 38.6719 2.88088 43.1152 6.34768 46.7773C1.95318 51.2695 0 56.2988 0 61.0351ZM50.4883 101.904C54.4434 101.904 56.9824 100.635 56.9824 98.584C56.9824 96.0449 56.2989 88.2324 56.2989 83.4473C56.2989 77.0019 61.6211 65.7715 69.4336 50.4883L63.8672 47.8515C57.959 58.5449 56.2012 61.9629 53.8574 67.041L53.6133 47.8515L46.9727 47.4609L47.0703 67.0898C44.7754 62.0117 42.6758 58.0566 37.5 49.2187L33.3985 54.834C39.3067 65.7715 44.6289 77.0019 44.6289 83.4473C44.6289 88.2324 43.9453 96.0449 43.9453 98.584C43.9453 100.635 46.5332 101.904 50.4883 101.904Z" fill="black"/>
</svg>
